<svg xmlns="http://www.w3.org/2000/svg" version="1.1" xmlns:xlink="http://www.w3.org/1999/xlink" xmlns:svgjs="http://svgjs.com/svgjs" width="1920" height="1080" preserveAspectRatio="none" viewBox="0 0 1920 1080"><g mask="url(&quot;#SvgjsMask1135&quot;)" fill="none"><rect width="1920" height="1080" x="0" y="0" fill="url(#SvgjsLinearGradient1136)"></rect><path d="M75.03 293.03L139.99 330.53L139.99 405.53L75.03 443.03L10.08 405.53L10.08 330.53zM75.03 518.03L139.99 555.53L139.99 630.53L75.03 668.03L10.08 630.53L10.08 555.53zM10.08 630.53L75.03 668.03L75.03 743.03L10.08 780.53L-54.87 743.03L-54.87 668.03zM75.03 743.03L139.99 780.53L139.99 855.53L75.03 893.03L10.08 855.53L10.08 780.53zM139.99 -44.47L204.94 -6.97L204.94 68.03L139.99 105.53L75.03 68.03L75.03 -6.97zM204.94 68.03L269.89 105.53L269.89 180.53L204.94 218.03L139.99 180.53L139.99 105.53zM204.94 293.03L269.89 330.53L269.89 405.53L204.94 443.03L139.99 405.53L139.99 330.53zM139.99 405.53L204.94 443.03L204.94 518.03L139.99 555.53L75.03 518.03L75.03 443.03zM204.94 518.03L269.89 555.53L269.89 630.53L204.94 668.03L139.99 630.53L139.99 555.53zM139.99 630.53L204.94 668.03L204.94 743.03L139.99 780.53L75.03 743.03L75.03 668.03zM204.94 968.03L269.89 1005.53L269.89 1080.53L204.94 1118.03L139.99 1080.53L139.99 1005.53zM269.89 180.53L334.85 218.03L334.85 293.03L269.89 330.53L204.94 293.03L204.94 218.03zM334.85 518.03L399.8 555.53L399.8 630.53L334.85 668.03L269.89 630.53L269.89 555.53zM334.85 743.03L399.8 780.53L399.8 855.53L334.85 893.03L269.89 855.53L269.89 780.53zM269.89 855.53L334.85 893.03L334.85 968.03L269.89 1005.53L204.94 968.03L204.94 893.03zM269.89 1080.53L334.85 1118.03L334.85 1193.03L269.89 1230.53L204.94 1193.03L204.94 1118.03zM399.8 -44.47L464.76 -6.97L464.76 68.03L399.8 105.53L334.85 68.03L334.85 -6.97zM464.76 293.03L529.71 330.53L529.71 405.53L464.76 443.03L399.8 405.53L399.8 330.53zM399.8 405.53L464.76 443.03L464.76 518.03L399.8 555.53L334.85 518.03L334.85 443.03zM399.8 630.53L464.76 668.03L464.76 743.03L399.8 780.53L334.85 743.03L334.85 668.03zM464.76 743.03L529.71 780.53L529.71 855.53L464.76 893.03L399.8 855.53L399.8 780.53zM399.8 855.53L464.76 893.03L464.76 968.03L399.8 1005.53L334.85 968.03L334.85 893.03zM464.76 968.03L529.71 1005.53L529.71 1080.53L464.76 1118.03L399.8 1080.53L399.8 1005.53zM529.71 405.53L594.66 443.03L594.66 518.03L529.71 555.53L464.76 518.03L464.76 443.03zM594.66 518.03L659.62 555.53L659.62 630.53L594.66 668.03L529.71 630.53L529.71 555.53zM594.66 743.03L659.62 780.53L659.62 855.53L594.66 893.03L529.71 855.53L529.71 780.53zM594.66 968.03L659.62 1005.53L659.62 1080.53L594.66 1118.03L529.71 1080.53L529.71 1005.53zM659.62 180.53L724.57 218.03L724.57 293.03L659.62 330.53L594.66 293.03L594.66 218.03zM724.57 293.03L789.53 330.53L789.53 405.53L724.57 443.03L659.62 405.53L659.62 330.53zM659.62 405.53L724.57 443.03L724.57 518.03L659.62 555.53L594.66 518.03L594.66 443.03zM724.57 518.03L789.53 555.53L789.53 630.53L724.57 668.03L659.62 630.53L659.62 555.53zM659.62 1080.53L724.57 1118.03L724.57 1193.03L659.62 1230.53L594.66 1193.03L594.66 1118.03zM789.52 -44.47L854.48 -6.97L854.48 68.03L789.52 105.53L724.57 68.03L724.57 -6.97zM789.52 180.53L854.48 218.03L854.48 293.03L789.52 330.53L724.57 293.03L724.57 218.03zM854.48 518.03L919.43 555.53L919.43 630.53L854.48 668.03L789.52 630.53L789.52 555.53zM789.52 630.53L854.48 668.03L854.48 743.03L789.52 780.53L724.57 743.03L724.57 668.03zM854.48 743.03L919.43 780.53L919.43 855.53L854.48 893.03L789.52 855.53L789.52 780.53zM789.52 855.53L854.48 893.03L854.48 968.03L789.52 1005.53L724.57 968.03L724.57 893.03zM919.43 180.53L984.39 218.03L984.39 293.03L919.43 330.53L854.48 293.03L854.48 218.03zM984.39 293.03L1049.34 330.53L1049.34 405.53L984.39 443.03L919.43 405.53L919.43 330.53zM919.43 405.53L984.39 443.03L984.39 518.03L919.43 555.53L854.48 518.03L854.48 443.03zM919.43 855.53L984.39 893.03L984.39 968.03L919.43 1005.53L854.48 968.03L854.48 893.03zM919.43 1080.53L984.39 1118.03L984.39 1193.03L919.43 1230.53L854.48 1193.03L854.48 1118.03zM1114.29 68.03L1179.25 105.53L1179.25 180.53L1114.29 218.03L1049.34 180.53L1049.34 105.53zM1049.34 180.53L1114.29 218.03L1114.29 293.03L1049.34 330.53L984.39 293.03L984.39 218.03zM1049.34 405.53L1114.29 443.03L1114.29 518.03L1049.34 555.53L984.39 518.03L984.39 443.03zM1049.34 1080.53L1114.29 1118.03L1114.29 1193.03L1049.34 1230.53L984.39 1193.03L984.39 1118.03zM1179.25 180.53L1244.2 218.03L1244.2 293.03L1179.25 330.53L1114.29 293.03L1114.29 218.03zM1244.2 518.03L1309.15 555.53L1309.15 630.53L1244.2 668.03L1179.25 630.53L1179.25 555.53zM1179.25 855.53L1244.2 893.03L1244.2 968.03L1179.25 1005.53L1114.29 968.03L1114.29 893.03zM1374.11 68.03L1439.06 105.53L1439.06 180.53L1374.11 218.03L1309.15 180.53L1309.15 105.53zM1374.11 293.03L1439.06 330.53L1439.06 405.53L1374.11 443.03L1309.15 405.53L1309.15 330.53zM1309.15 630.53L1374.11 668.03L1374.11 743.03L1309.15 780.53L1244.2 743.03L1244.2 668.03zM1374.11 968.03L1439.06 1005.53L1439.06 1080.53L1374.11 1118.03L1309.15 1080.53L1309.15 1005.53zM1309.15 1080.53L1374.11 1118.03L1374.11 1193.03L1309.15 1230.53L1244.2 1193.03L1244.2 1118.03zM1439.06 -44.47L1504.02 -6.97L1504.02 68.03L1439.06 105.53L1374.11 68.03L1374.11 -6.97zM1504.02 68.03L1568.97 105.53L1568.97 180.53L1504.02 218.03L1439.06 180.53L1439.06 105.53zM1504.02 293.03L1568.97 330.53L1568.97 405.53L1504.02 443.03L1439.06 405.53L1439.06 330.53zM1439.06 405.53L1504.02 443.03L1504.02 518.03L1439.06 555.53L1374.11 518.03L1374.11 443.03zM1504.02 743.03L1568.97 780.53L1568.97 855.53L1504.02 893.03L1439.06 855.53L1439.06 780.53zM1439.06 855.53L1504.02 893.03L1504.02 968.03L1439.06 1005.53L1374.11 968.03L1374.11 893.03zM1504.02 968.03L1568.97 1005.53L1568.97 1080.53L1504.02 1118.03L1439.06 1080.53L1439.06 1005.53zM1439.06 1080.53L1504.02 1118.03L1504.02 1193.03L1439.06 1230.53L1374.11 1193.03L1374.11 1118.03zM1633.92 68.03L1698.88 105.53L1698.88 180.53L1633.92 218.03L1568.97 180.53L1568.97 105.53zM1568.97 405.53L1633.92 443.03L1633.92 518.03L1568.97 555.53L1504.02 518.03L1504.02 443.03zM1568.97 855.53L1633.92 893.03L1633.92 968.03L1568.97 1005.53L1504.02 968.03L1504.02 893.03zM1633.92 968.03L1698.88 1005.53L1698.88 1080.53L1633.92 1118.03L1568.97 1080.53L1568.97 1005.53zM1698.88 -44.47L1763.83 -6.97L1763.83 68.03L1698.88 105.53L1633.92 68.03L1633.92 -6.97zM1698.88 180.53L1763.83 218.03L1763.83 293.03L1698.88 330.53L1633.92 293.03L1633.92 218.03zM1698.88 405.53L1763.83 443.03L1763.83 518.03L1698.88 555.53L1633.92 518.03L1633.92 443.03zM1763.83 518.03L1828.78 555.53L1828.78 630.53L1763.83 668.03L1698.88 630.53L1698.88 555.53zM1763.83 743.03L1828.78 780.53L1828.78 855.53L1763.83 893.03L1698.88 855.53L1698.88 780.53zM1698.88 855.53L1763.83 893.03L1763.83 968.03L1698.88 1005.53L1633.92 968.03L1633.92 893.03zM1763.83 968.03L1828.78 1005.53L1828.78 1080.53L1763.83 1118.03L1698.88 1080.53L1698.88 1005.53zM1698.88 1080.53L1763.83 1118.03L1763.83 1193.03L1698.88 1230.53L1633.92 1193.03L1633.92 1118.03zM1828.78 -44.47L1893.74 -6.97L1893.74 68.03L1828.78 105.53L1763.83 68.03L1763.83 -6.97zM1893.74 68.03L1958.69 105.53L1958.69 180.53L1893.74 218.03L1828.78 180.53L1828.78 105.53zM1828.78 180.53L1893.74 218.03L1893.74 293.03L1828.78 330.53L1763.83 293.03L1763.83 218.03zM1893.74 293.03L1958.69 330.53L1958.69 405.53L1893.74 443.03L1828.78 405.53L1828.78 330.53zM1893.74 518.03L1958.69 555.53L1958.69 630.53L1893.74 668.03L1828.78 630.53L1828.78 555.53zM1893.74 743.03L1958.69 780.53L1958.69 855.53L1893.74 893.03L1828.78 855.53L1828.78 780.53zM1828.78 855.53L1893.74 893.03L1893.74 968.03L1828.78 1005.53L1763.83 968.03L1763.83 893.03zM1893.74 968.03L1958.69 1005.53L1958.69 1080.53L1893.74 1118.03L1828.78 1080.53L1828.78 1005.53zM1828.78 1080.53L1893.74 1118.03L1893.74 1193.03L1828.78 1230.53L1763.83 1193.03L1763.83 1118.03z" stroke="#03305d" stroke-width="2"></path><path d="M67.53 293.03 a7.5 7.5 0 1 0 15 0 a7.5 7.5 0 1 0 -15 0zM132.49 330.53 a7.5 7.5 0 1 0 15 0 a7.5 7.5 0 1 0 -15 0zM132.49 405.53 a7.5 7.5 0 1 0 15 0 a7.5 7.5 0 1 0 -15 0zM67.53 443.03 a7.5 7.5 0 1 0 15 0 a7.5 7.5 0 1 0 -15 0zM2.58 405.53 a7.5 7.5 0 1 0 15 0 a7.5 7.5 0 1 0 -15 0zM2.58 330.53 a7.5 7.5 0 1 0 15 0 a7.5 7.5 0 1 0 -15 0zM67.53 518.03 a7.5 7.5 0 1 0 15 0 a7.5 7.5 0 1 0 -15 0zM132.49 555.53 a7.5 7.5 0 1 0 15 0 a7.5 7.5 0 1 0 -15 0zM132.49 630.53 a7.5 7.5 0 1 0 15 0 a7.5 7.5 0 1 0 -15 0zM67.53 668.03 a7.5 7.5 0 1 0 15 0 a7.5 7.5 0 1 0 -15 0zM2.58 630.53 a7.5 7.5 0 1 0 15 0 a7.5 7.5 0 1 0 -15 0zM2.58 555.53 a7.5 7.5 0 1 0 15 0 a7.5 7.5 0 1 0 -15 0zM67.53 743.03 a7.5 7.5 0 1 0 15 0 a7.5 7.5 0 1 0 -15 0zM2.58 780.53 a7.5 7.5 0 1 0 15 0 a7.5 7.5 0 1 0 -15 0zM-62.37 743.03 a7.5 7.5 0 1 0 15 0 a7.5 7.5 0 1 0 -15 0zM-62.37 668.03 a7.5 7.5 0 1 0 15 0 a7.5 7.5 0 1 0 -15 0zM132.49 780.53 a7.5 7.5 0 1 0 15 0 a7.5 7.5 0 1 0 -15 0zM132.49 855.53 a7.5 7.5 0 1 0 15 0 a7.5 7.5 0 1 0 -15 0zM67.53 893.03 a7.5 7.5 0 1 0 15 0 a7.5 7.5 0 1 0 -15 0zM2.58 855.53 a7.5 7.5 0 1 0 15 0 a7.5 7.5 0 1 0 -15 0zM132.49 -44.47 a7.5 7.5 0 1 0 15 0 a7.5 7.5 0 1 0 -15 0zM197.44 -6.97 a7.5 7.5 0 1 0 15 0 a7.5 7.5 0 1 0 -15 0zM197.44 68.03 a7.5 7.5 0 1 0 15 0 a7.5 7.5 0 1 0 -15 0zM132.49 105.53 a7.5 7.5 0 1 0 15 0 a7.5 7.5 0 1 0 -15 0zM67.53 68.03 a7.5 7.5 0 1 0 15 0 a7.5 7.5 0 1 0 -15 0zM67.53 -6.97 a7.5 7.5 0 1 0 15 0 a7.5 7.5 0 1 0 -15 0zM262.39 105.53 a7.5 7.5 0 1 0 15 0 a7.5 7.5 0 1 0 -15 0zM262.39 180.53 a7.5 7.5 0 1 0 15 0 a7.5 7.5 0 1 0 -15 0zM197.44 218.03 a7.5 7.5 0 1 0 15 0 a7.5 7.5 0 1 0 -15 0zM132.49 180.53 a7.5 7.5 0 1 0 15 0 a7.5 7.5 0 1 0 -15 0zM197.44 293.03 a7.5 7.5 0 1 0 15 0 a7.5 7.5 0 1 0 -15 0zM262.39 330.53 a7.5 7.5 0 1 0 15 0 a7.5 7.5 0 1 0 -15 0zM262.39 405.53 a7.5 7.5 0 1 0 15 0 a7.5 7.5 0 1 0 -15 0zM197.44 443.03 a7.5 7.5 0 1 0 15 0 a7.5 7.5 0 1 0 -15 0zM197.44 518.03 a7.5 7.5 0 1 0 15 0 a7.5 7.5 0 1 0 -15 0zM262.39 555.53 a7.5 7.5 0 1 0 15 0 a7.5 7.5 0 1 0 -15 0zM262.39 630.53 a7.5 7.5 0 1 0 15 0 a7.5 7.5 0 1 0 -15 0zM197.44 668.03 a7.5 7.5 0 1 0 15 0 a7.5 7.5 0 1 0 -15 0zM197.44 743.03 a7.5 7.5 0 1 0 15 0 a7.5 7.5 0 1 0 -15 0zM197.44 968.03 a7.5 7.5 0 1 0 15 0 a7.5 7.5 0 1 0 -15 0zM262.39 1005.53 a7.5 7.5 0 1 0 15 0 a7.5 7.5 0 1 0 -15 0zM262.39 1080.53 a7.5 7.5 0 1 0 15 0 a7.5 7.5 0 1 0 -15 0zM197.44 1118.03 a7.5 7.5 0 1 0 15 0 a7.5 7.5 0 1 0 -15 0zM132.49 1080.53 a7.5 7.5 0 1 0 15 0 a7.5 7.5 0 1 0 -15 0zM132.49 1005.53 a7.5 7.5 0 1 0 15 0 a7.5 7.5 0 1 0 -15 0zM327.35 218.03 a7.5 7.5 0 1 0 15 0 a7.5 7.5 0 1 0 -15 0zM327.35 293.03 a7.5 7.5 0 1 0 15 0 a7.5 7.5 0 1 0 -15 0zM327.35 518.03 a7.5 7.5 0 1 0 15 0 a7.5 7.5 0 1 0 -15 0zM392.3 555.53 a7.5 7.5 0 1 0 15 0 a7.5 7.5 0 1 0 -15 0zM392.3 630.53 a7.5 7.5 0 1 0 15 0 a7.5 7.5 0 1 0 -15 0zM327.35 668.03 a7.5 7.5 0 1 0 15 0 a7.5 7.5 0 1 0 -15 0zM327.35 743.03 a7.5 7.5 0 1 0 15 0 a7.5 7.5 0 1 0 -15 0zM392.3 780.53 a7.5 7.5 0 1 0 15 0 a7.5 7.5 0 1 0 -15 0zM392.3 855.53 a7.5 7.5 0 1 0 15 0 a7.5 7.5 0 1 0 -15 0zM327.35 893.03 a7.5 7.5 0 1 0 15 0 a7.5 7.5 0 1 0 -15 0zM262.39 855.53 a7.5 7.5 0 1 0 15 0 a7.5 7.5 0 1 0 -15 0zM262.39 780.53 a7.5 7.5 0 1 0 15 0 a7.5 7.5 0 1 0 -15 0zM327.35 968.03 a7.5 7.5 0 1 0 15 0 a7.5 7.5 0 1 0 -15 0zM197.44 893.03 a7.5 7.5 0 1 0 15 0 a7.5 7.5 0 1 0 -15 0zM327.35 1118.03 a7.5 7.5 0 1 0 15 0 a7.5 7.5 0 1 0 -15 0zM327.35 1193.03 a7.5 7.5 0 1 0 15 0 a7.5 7.5 0 1 0 -15 0zM262.39 1230.53 a7.5 7.5 0 1 0 15 0 a7.5 7.5 0 1 0 -15 0zM197.44 1193.03 a7.5 7.5 0 1 0 15 0 a7.5 7.5 0 1 0 -15 0zM392.3 -44.47 a7.5 7.5 0 1 0 15 0 a7.5 7.5 0 1 0 -15 0zM457.26 -6.97 a7.5 7.5 0 1 0 15 0 a7.5 7.5 0 1 0 -15 0zM457.26 68.03 a7.5 7.5 0 1 0 15 0 a7.5 7.5 0 1 0 -15 0zM392.3 105.53 a7.5 7.5 0 1 0 15 0 a7.5 7.5 0 1 0 -15 0zM327.35 68.03 a7.5 7.5 0 1 0 15 0 a7.5 7.5 0 1 0 -15 0zM327.35 -6.97 a7.5 7.5 0 1 0 15 0 a7.5 7.5 0 1 0 -15 0zM457.26 293.03 a7.5 7.5 0 1 0 15 0 a7.5 7.5 0 1 0 -15 0zM522.21 330.53 a7.5 7.5 0 1 0 15 0 a7.5 7.5 0 1 0 -15 0zM522.21 405.53 a7.5 7.5 0 1 0 15 0 a7.5 7.5 0 1 0 -15 0zM457.26 443.03 a7.5 7.5 0 1 0 15 0 a7.5 7.5 0 1 0 -15 0zM392.3 405.53 a7.5 7.5 0 1 0 15 0 a7.5 7.5 0 1 0 -15 0zM392.3 330.53 a7.5 7.5 0 1 0 15 0 a7.5 7.5 0 1 0 -15 0zM457.26 518.03 a7.5 7.5 0 1 0 15 0 a7.5 7.5 0 1 0 -15 0zM327.35 443.03 a7.5 7.5 0 1 0 15 0 a7.5 7.5 0 1 0 -15 0zM457.26 668.03 a7.5 7.5 0 1 0 15 0 a7.5 7.5 0 1 0 -15 0zM457.26 743.03 a7.5 7.5 0 1 0 15 0 a7.5 7.5 0 1 0 -15 0zM522.21 780.53 a7.5 7.5 0 1 0 15 0 a7.5 7.5 0 1 0 -15 0zM522.21 855.53 a7.5 7.5 0 1 0 15 0 a7.5 7.5 0 1 0 -15 0zM457.26 893.03 a7.5 7.5 0 1 0 15 0 a7.5 7.5 0 1 0 -15 0zM457.26 968.03 a7.5 7.5 0 1 0 15 0 a7.5 7.5 0 1 0 -15 0zM392.3 1005.53 a7.5 7.5 0 1 0 15 0 a7.5 7.5 0 1 0 -15 0zM522.21 1005.53 a7.5 7.5 0 1 0 15 0 a7.5 7.5 0 1 0 -15 0zM522.21 1080.53 a7.5 7.5 0 1 0 15 0 a7.5 7.5 0 1 0 -15 0zM457.26 1118.03 a7.5 7.5 0 1 0 15 0 a7.5 7.5 0 1 0 -15 0zM392.3 1080.53 a7.5 7.5 0 1 0 15 0 a7.5 7.5 0 1 0 -15 0zM587.16 443.03 a7.5 7.5 0 1 0 15 0 a7.5 7.5 0 1 0 -15 0zM587.16 518.03 a7.5 7.5 0 1 0 15 0 a7.5 7.5 0 1 0 -15 0zM522.21 555.53 a7.5 7.5 0 1 0 15 0 a7.5 7.5 0 1 0 -15 0zM652.12 555.53 a7.5 7.5 0 1 0 15 0 a7.5 7.5 0 1 0 -15 0zM652.12 630.53 a7.5 7.5 0 1 0 15 0 a7.5 7.5 0 1 0 -15 0zM587.16 668.03 a7.5 7.5 0 1 0 15 0 a7.5 7.5 0 1 0 -15 0zM522.21 630.53 a7.5 7.5 0 1 0 15 0 a7.5 7.5 0 1 0 -15 0zM587.16 743.03 a7.5 7.5 0 1 0 15 0 a7.5 7.5 0 1 0 -15 0zM652.12 780.53 a7.5 7.5 0 1 0 15 0 a7.5 7.5 0 1 0 -15 0zM652.12 855.53 a7.5 7.5 0 1 0 15 0 a7.5 7.5 0 1 0 -15 0zM587.16 893.03 a7.5 7.5 0 1 0 15 0 a7.5 7.5 0 1 0 -15 0zM587.16 968.03 a7.5 7.5 0 1 0 15 0 a7.5 7.5 0 1 0 -15 0zM652.12 1005.53 a7.5 7.5 0 1 0 15 0 a7.5 7.5 0 1 0 -15 0zM652.12 1080.53 a7.5 7.5 0 1 0 15 0 a7.5 7.5 0 1 0 -15 0zM587.16 1118.03 a7.5 7.5 0 1 0 15 0 a7.5 7.5 0 1 0 -15 0zM652.12 180.53 a7.5 7.5 0 1 0 15 0 a7.5 7.5 0 1 0 -15 0zM717.07 218.03 a7.5 7.5 0 1 0 15 0 a7.5 7.5 0 1 0 -15 0zM717.07 293.03 a7.5 7.5 0 1 0 15 0 a7.5 7.5 0 1 0 -15 0zM652.12 330.53 a7.5 7.5 0 1 0 15 0 a7.5 7.5 0 1 0 -15 0zM587.16 293.03 a7.5 7.5 0 1 0 15 0 a7.5 7.5 0 1 0 -15 0zM587.16 218.03 a7.5 7.5 0 1 0 15 0 a7.5 7.5 0 1 0 -15 0zM782.03 330.53 a7.5 7.5 0 1 0 15 0 a7.5 7.5 0 1 0 -15 0zM782.03 405.53 a7.5 7.5 0 1 0 15 0 a7.5 7.5 0 1 0 -15 0zM717.07 443.03 a7.5 7.5 0 1 0 15 0 a7.5 7.5 0 1 0 -15 0zM652.12 405.53 a7.5 7.5 0 1 0 15 0 a7.5 7.5 0 1 0 -15 0zM717.07 518.03 a7.5 7.5 0 1 0 15 0 a7.5 7.5 0 1 0 -15 0zM782.03 555.53 a7.5 7.5 0 1 0 15 0 a7.5 7.5 0 1 0 -15 0zM782.03 630.53 a7.5 7.5 0 1 0 15 0 a7.5 7.5 0 1 0 -15 0zM717.07 668.03 a7.5 7.5 0 1 0 15 0 a7.5 7.5 0 1 0 -15 0zM717.07 1118.03 a7.5 7.5 0 1 0 15 0 a7.5 7.5 0 1 0 -15 0zM717.07 1193.03 a7.5 7.5 0 1 0 15 0 a7.5 7.5 0 1 0 -15 0zM652.12 1230.53 a7.5 7.5 0 1 0 15 0 a7.5 7.5 0 1 0 -15 0zM587.16 1193.03 a7.5 7.5 0 1 0 15 0 a7.5 7.5 0 1 0 -15 0zM782.02 -44.47 a7.5 7.5 0 1 0 15 0 a7.5 7.5 0 1 0 -15 0zM846.98 -6.97 a7.5 7.5 0 1 0 15 0 a7.5 7.5 0 1 0 -15 0zM846.98 68.03 a7.5 7.5 0 1 0 15 0 a7.5 7.5 0 1 0 -15 0zM782.02 105.53 a7.5 7.5 0 1 0 15 0 a7.5 7.5 0 1 0 -15 0zM717.07 68.03 a7.5 7.5 0 1 0 15 0 a7.5 7.5 0 1 0 -15 0zM717.07 -6.97 a7.5 7.5 0 1 0 15 0 a7.5 7.5 0 1 0 -15 0zM782.02 180.53 a7.5 7.5 0 1 0 15 0 a7.5 7.5 0 1 0 -15 0zM846.98 218.03 a7.5 7.5 0 1 0 15 0 a7.5 7.5 0 1 0 -15 0zM846.98 293.03 a7.5 7.5 0 1 0 15 0 a7.5 7.5 0 1 0 -15 0zM782.02 330.53 a7.5 7.5 0 1 0 15 0 a7.5 7.5 0 1 0 -15 0zM846.98 518.03 a7.5 7.5 0 1 0 15 0 a7.5 7.5 0 1 0 -15 0zM911.93 555.53 a7.5 7.5 0 1 0 15 0 a7.5 7.5 0 1 0 -15 0zM911.93 630.53 a7.5 7.5 0 1 0 15 0 a7.5 7.5 0 1 0 -15 0zM846.98 668.03 a7.5 7.5 0 1 0 15 0 a7.5 7.5 0 1 0 -15 0zM782.02 630.53 a7.5 7.5 0 1 0 15 0 a7.5 7.5 0 1 0 -15 0zM782.02 555.53 a7.5 7.5 0 1 0 15 0 a7.5 7.5 0 1 0 -15 0zM846.98 743.03 a7.5 7.5 0 1 0 15 0 a7.5 7.5 0 1 0 -15 0zM782.02 780.53 a7.5 7.5 0 1 0 15 0 a7.5 7.5 0 1 0 -15 0zM717.07 743.03 a7.5 7.5 0 1 0 15 0 a7.5 7.5 0 1 0 -15 0zM911.93 780.53 a7.5 7.5 0 1 0 15 0 a7.5 7.5 0 1 0 -15 0zM911.93 855.53 a7.5 7.5 0 1 0 15 0 a7.5 7.5 0 1 0 -15 0zM846.98 893.03 a7.5 7.5 0 1 0 15 0 a7.5 7.5 0 1 0 -15 0zM782.02 855.53 a7.5 7.5 0 1 0 15 0 a7.5 7.5 0 1 0 -15 0zM846.98 968.03 a7.5 7.5 0 1 0 15 0 a7.5 7.5 0 1 0 -15 0zM782.02 1005.53 a7.5 7.5 0 1 0 15 0 a7.5 7.5 0 1 0 -15 0zM717.07 968.03 a7.5 7.5 0 1 0 15 0 a7.5 7.5 0 1 0 -15 0zM717.07 893.03 a7.5 7.5 0 1 0 15 0 a7.5 7.5 0 1 0 -15 0zM911.93 180.53 a7.5 7.5 0 1 0 15 0 a7.5 7.5 0 1 0 -15 0zM976.89 218.03 a7.5 7.5 0 1 0 15 0 a7.5 7.5 0 1 0 -15 0zM976.89 293.03 a7.5 7.5 0 1 0 15 0 a7.5 7.5 0 1 0 -15 0zM911.93 330.53 a7.5 7.5 0 1 0 15 0 a7.5 7.5 0 1 0 -15 0zM1041.84 330.53 a7.5 7.5 0 1 0 15 0 a7.5 7.5 0 1 0 -15 0zM1041.84 405.53 a7.5 7.5 0 1 0 15 0 a7.5 7.5 0 1 0 -15 0zM976.89 443.03 a7.5 7.5 0 1 0 15 0 a7.5 7.5 0 1 0 -15 0zM911.93 405.53 a7.5 7.5 0 1 0 15 0 a7.5 7.5 0 1 0 -15 0zM976.89 518.03 a7.5 7.5 0 1 0 15 0 a7.5 7.5 0 1 0 -15 0zM846.98 443.03 a7.5 7.5 0 1 0 15 0 a7.5 7.5 0 1 0 -15 0zM976.89 893.03 a7.5 7.5 0 1 0 15 0 a7.5 7.5 0 1 0 -15 0zM976.89 968.03 a7.5 7.5 0 1 0 15 0 a7.5 7.5 0 1 0 -15 0zM911.93 1005.53 a7.5 7.5 0 1 0 15 0 a7.5 7.5 0 1 0 -15 0zM911.93 1080.53 a7.5 7.5 0 1 0 15 0 a7.5 7.5 0 1 0 -15 0zM976.89 1118.03 a7.5 7.5 0 1 0 15 0 a7.5 7.5 0 1 0 -15 0zM976.89 1193.03 a7.5 7.5 0 1 0 15 0 a7.5 7.5 0 1 0 -15 0zM911.93 1230.53 a7.5 7.5 0 1 0 15 0 a7.5 7.5 0 1 0 -15 0zM846.98 1193.03 a7.5 7.5 0 1 0 15 0 a7.5 7.5 0 1 0 -15 0zM846.98 1118.03 a7.5 7.5 0 1 0 15 0 a7.5 7.5 0 1 0 -15 0zM1106.79 68.03 a7.5 7.5 0 1 0 15 0 a7.5 7.5 0 1 0 -15 0zM1171.75 105.53 a7.5 7.5 0 1 0 15 0 a7.5 7.5 0 1 0 -15 0zM1171.75 180.53 a7.5 7.5 0 1 0 15 0 a7.5 7.5 0 1 0 -15 0zM1106.79 218.03 a7.5 7.5 0 1 0 15 0 a7.5 7.5 0 1 0 -15 0zM1041.84 180.53 a7.5 7.5 0 1 0 15 0 a7.5 7.5 0 1 0 -15 0zM1041.84 105.53 a7.5 7.5 0 1 0 15 0 a7.5 7.5 0 1 0 -15 0zM1106.79 293.03 a7.5 7.5 0 1 0 15 0 a7.5 7.5 0 1 0 -15 0zM1106.79 443.03 a7.5 7.5 0 1 0 15 0 a7.5 7.5 0 1 0 -15 0zM1106.79 518.03 a7.5 7.5 0 1 0 15 0 a7.5 7.5 0 1 0 -15 0zM1041.84 555.53 a7.5 7.5 0 1 0 15 0 a7.5 7.5 0 1 0 -15 0zM1041.84 1080.53 a7.5 7.5 0 1 0 15 0 a7.5 7.5 0 1 0 -15 0zM1106.79 1118.03 a7.5 7.5 0 1 0 15 0 a7.5 7.5 0 1 0 -15 0zM1106.79 1193.03 a7.5 7.5 0 1 0 15 0 a7.5 7.5 0 1 0 -15 0zM1041.84 1230.53 a7.5 7.5 0 1 0 15 0 a7.5 7.5 0 1 0 -15 0zM1236.7 218.03 a7.5 7.5 0 1 0 15 0 a7.5 7.5 0 1 0 -15 0zM1236.7 293.03 a7.5 7.5 0 1 0 15 0 a7.5 7.5 0 1 0 -15 0zM1171.75 330.53 a7.5 7.5 0 1 0 15 0 a7.5 7.5 0 1 0 -15 0zM1236.7 518.03 a7.5 7.5 0 1 0 15 0 a7.5 7.5 0 1 0 -15 0zM1301.65 555.53 a7.5 7.5 0 1 0 15 0 a7.5 7.5 0 1 0 -15 0zM1301.65 630.53 a7.5 7.5 0 1 0 15 0 a7.5 7.5 0 1 0 -15 0zM1236.7 668.03 a7.5 7.5 0 1 0 15 0 a7.5 7.5 0 1 0 -15 0zM1171.75 630.53 a7.5 7.5 0 1 0 15 0 a7.5 7.5 0 1 0 -15 0zM1171.75 555.53 a7.5 7.5 0 1 0 15 0 a7.5 7.5 0 1 0 -15 0zM1171.75 855.53 a7.5 7.5 0 1 0 15 0 a7.5 7.5 0 1 0 -15 0zM1236.7 893.03 a7.5 7.5 0 1 0 15 0 a7.5 7.5 0 1 0 -15 0zM1236.7 968.03 a7.5 7.5 0 1 0 15 0 a7.5 7.5 0 1 0 -15 0zM1171.75 1005.53 a7.5 7.5 0 1 0 15 0 a7.5 7.5 0 1 0 -15 0zM1106.79 968.03 a7.5 7.5 0 1 0 15 0 a7.5 7.5 0 1 0 -15 0zM1106.79 893.03 a7.5 7.5 0 1 0 15 0 a7.5 7.5 0 1 0 -15 0zM1366.61 68.03 a7.5 7.5 0 1 0 15 0 a7.5 7.5 0 1 0 -15 0zM1431.56 105.53 a7.5 7.5 0 1 0 15 0 a7.5 7.5 0 1 0 -15 0zM1431.56 180.53 a7.5 7.5 0 1 0 15 0 a7.5 7.5 0 1 0 -15 0zM1366.61 218.03 a7.5 7.5 0 1 0 15 0 a7.5 7.5 0 1 0 -15 0zM1301.65 180.53 a7.5 7.5 0 1 0 15 0 a7.5 7.5 0 1 0 -15 0zM1301.65 105.53 a7.5 7.5 0 1 0 15 0 a7.5 7.5 0 1 0 -15 0zM1366.61 293.03 a7.5 7.5 0 1 0 15 0 a7.5 7.5 0 1 0 -15 0zM1431.56 330.53 a7.5 7.5 0 1 0 15 0 a7.5 7.5 0 1 0 -15 0zM1431.56 405.53 a7.5 7.5 0 1 0 15 0 a7.5 7.5 0 1 0 -15 0zM1366.61 443.03 a7.5 7.5 0 1 0 15 0 a7.5 7.5 0 1 0 -15 0zM1301.65 405.53 a7.5 7.5 0 1 0 15 0 a7.5 7.5 0 1 0 -15 0zM1301.65 330.53 a7.5 7.5 0 1 0 15 0 a7.5 7.5 0 1 0 -15 0zM1366.61 668.03 a7.5 7.5 0 1 0 15 0 a7.5 7.5 0 1 0 -15 0zM1366.61 743.03 a7.5 7.5 0 1 0 15 0 a7.5 7.5 0 1 0 -15 0zM1301.65 780.53 a7.5 7.5 0 1 0 15 0 a7.5 7.5 0 1 0 -15 0zM1236.7 743.03 a7.5 7.5 0 1 0 15 0 a7.5 7.5 0 1 0 -15 0zM1366.61 968.03 a7.5 7.5 0 1 0 15 0 a7.5 7.5 0 1 0 -15 0zM1431.56 1005.53 a7.5 7.5 0 1 0 15 0 a7.5 7.5 0 1 0 -15 0zM1431.56 1080.53 a7.5 7.5 0 1 0 15 0 a7.5 7.5 0 1 0 -15 0zM1366.61 1118.03 a7.5 7.5 0 1 0 15 0 a7.5 7.5 0 1 0 -15 0zM1301.65 1080.53 a7.5 7.5 0 1 0 15 0 a7.5 7.5 0 1 0 -15 0zM1301.65 1005.53 a7.5 7.5 0 1 0 15 0 a7.5 7.5 0 1 0 -15 0zM1366.61 1193.03 a7.5 7.5 0 1 0 15 0 a7.5 7.5 0 1 0 -15 0zM1301.65 1230.53 a7.5 7.5 0 1 0 15 0 a7.5 7.5 0 1 0 -15 0zM1236.7 1193.03 a7.5 7.5 0 1 0 15 0 a7.5 7.5 0 1 0 -15 0zM1236.7 1118.03 a7.5 7.5 0 1 0 15 0 a7.5 7.5 0 1 0 -15 0zM1431.56 -44.47 a7.5 7.5 0 1 0 15 0 a7.5 7.5 0 1 0 -15 0zM1496.52 -6.97 a7.5 7.5 0 1 0 15 0 a7.5 7.5 0 1 0 -15 0zM1496.52 68.03 a7.5 7.5 0 1 0 15 0 a7.5 7.5 0 1 0 -15 0zM1366.61 -6.97 a7.5 7.5 0 1 0 15 0 a7.5 7.5 0 1 0 -15 0zM1561.47 105.53 a7.5 7.5 0 1 0 15 0 a7.5 7.5 0 1 0 -15 0zM1561.47 180.53 a7.5 7.5 0 1 0 15 0 a7.5 7.5 0 1 0 -15 0zM1496.52 218.03 a7.5 7.5 0 1 0 15 0 a7.5 7.5 0 1 0 -15 0zM1496.52 293.03 a7.5 7.5 0 1 0 15 0 a7.5 7.5 0 1 0 -15 0zM1561.47 330.53 a7.5 7.5 0 1 0 15 0 a7.5 7.5 0 1 0 -15 0zM1561.47 405.53 a7.5 7.5 0 1 0 15 0 a7.5 7.5 0 1 0 -15 0zM1496.52 443.03 a7.5 7.5 0 1 0 15 0 a7.5 7.5 0 1 0 -15 0zM1496.52 518.03 a7.5 7.5 0 1 0 15 0 a7.5 7.5 0 1 0 -15 0zM1431.56 555.53 a7.5 7.5 0 1 0 15 0 a7.5 7.5 0 1 0 -15 0zM1366.61 518.03 a7.5 7.5 0 1 0 15 0 a7.5 7.5 0 1 0 -15 0zM1496.52 743.03 a7.5 7.5 0 1 0 15 0 a7.5 7.5 0 1 0 -15 0zM1561.47 780.53 a7.5 7.5 0 1 0 15 0 a7.5 7.5 0 1 0 -15 0zM1561.47 855.53 a7.5 7.5 0 1 0 15 0 a7.5 7.5 0 1 0 -15 0zM1496.52 893.03 a7.5 7.5 0 1 0 15 0 a7.5 7.5 0 1 0 -15 0zM1431.56 855.53 a7.5 7.5 0 1 0 15 0 a7.5 7.5 0 1 0 -15 0zM1431.56 780.53 a7.5 7.5 0 1 0 15 0 a7.5 7.5 0 1 0 -15 0zM1496.52 968.03 a7.5 7.5 0 1 0 15 0 a7.5 7.5 0 1 0 -15 0zM1366.61 893.03 a7.5 7.5 0 1 0 15 0 a7.5 7.5 0 1 0 -15 0zM1561.47 1005.53 a7.5 7.5 0 1 0 15 0 a7.5 7.5 0 1 0 -15 0zM1561.47 1080.53 a7.5 7.5 0 1 0 15 0 a7.5 7.5 0 1 0 -15 0zM1496.52 1118.03 a7.5 7.5 0 1 0 15 0 a7.5 7.5 0 1 0 -15 0zM1496.52 1193.03 a7.5 7.5 0 1 0 15 0 a7.5 7.5 0 1 0 -15 0zM1431.56 1230.53 a7.5 7.5 0 1 0 15 0 a7.5 7.5 0 1 0 -15 0zM1626.42 68.03 a7.5 7.5 0 1 0 15 0 a7.5 7.5 0 1 0 -15 0zM1691.38 105.53 a7.5 7.5 0 1 0 15 0 a7.5 7.5 0 1 0 -15 0zM1691.38 180.53 a7.5 7.5 0 1 0 15 0 a7.5 7.5 0 1 0 -15 0zM1626.42 218.03 a7.5 7.5 0 1 0 15 0 a7.5 7.5 0 1 0 -15 0zM1626.42 443.03 a7.5 7.5 0 1 0 15 0 a7.5 7.5 0 1 0 -15 0zM1626.42 518.03 a7.5 7.5 0 1 0 15 0 a7.5 7.5 0 1 0 -15 0zM1561.47 555.53 a7.5 7.5 0 1 0 15 0 a7.5 7.5 0 1 0 -15 0zM1626.42 893.03 a7.5 7.5 0 1 0 15 0 a7.5 7.5 0 1 0 -15 0zM1626.42 968.03 a7.5 7.5 0 1 0 15 0 a7.5 7.5 0 1 0 -15 0zM1691.38 1005.53 a7.5 7.5 0 1 0 15 0 a7.5 7.5 0 1 0 -15 0zM1691.38 1080.53 a7.5 7.5 0 1 0 15 0 a7.5 7.5 0 1 0 -15 0zM1626.42 1118.03 a7.5 7.5 0 1 0 15 0 a7.5 7.5 0 1 0 -15 0zM1691.38 -44.47 a7.5 7.5 0 1 0 15 0 a7.5 7.5 0 1 0 -15 0zM1756.33 -6.97 a7.5 7.5 0 1 0 15 0 a7.5 7.5 0 1 0 -15 0zM1756.33 68.03 a7.5 7.5 0 1 0 15 0 a7.5 7.5 0 1 0 -15 0zM1626.42 -6.97 a7.5 7.5 0 1 0 15 0 a7.5 7.5 0 1 0 -15 0zM1756.33 218.03 a7.5 7.5 0 1 0 15 0 a7.5 7.5 0 1 0 -15 0zM1756.33 293.03 a7.5 7.5 0 1 0 15 0 a7.5 7.5 0 1 0 -15 0zM1691.38 330.53 a7.5 7.5 0 1 0 15 0 a7.5 7.5 0 1 0 -15 0zM1626.42 293.03 a7.5 7.5 0 1 0 15 0 a7.5 7.5 0 1 0 -15 0zM1691.38 405.53 a7.5 7.5 0 1 0 15 0 a7.5 7.5 0 1 0 -15 0zM1756.33 443.03 a7.5 7.5 0 1 0 15 0 a7.5 7.5 0 1 0 -15 0zM1756.33 518.03 a7.5 7.5 0 1 0 15 0 a7.5 7.5 0 1 0 -15 0zM1691.38 555.53 a7.5 7.5 0 1 0 15 0 a7.5 7.5 0 1 0 -15 0zM1821.28 555.53 a7.5 7.5 0 1 0 15 0 a7.5 7.5 0 1 0 -15 0zM1821.28 630.53 a7.5 7.5 0 1 0 15 0 a7.5 7.5 0 1 0 -15 0zM1756.33 668.03 a7.5 7.5 0 1 0 15 0 a7.5 7.5 0 1 0 -15 0zM1691.38 630.53 a7.5 7.5 0 1 0 15 0 a7.5 7.5 0 1 0 -15 0zM1756.33 743.03 a7.5 7.5 0 1 0 15 0 a7.5 7.5 0 1 0 -15 0zM1821.28 780.53 a7.5 7.5 0 1 0 15 0 a7.5 7.5 0 1 0 -15 0zM1821.28 855.53 a7.5 7.5 0 1 0 15 0 a7.5 7.5 0 1 0 -15 0zM1756.33 893.03 a7.5 7.5 0 1 0 15 0 a7.5 7.5 0 1 0 -15 0zM1691.38 855.53 a7.5 7.5 0 1 0 15 0 a7.5 7.5 0 1 0 -15 0zM1691.38 780.53 a7.5 7.5 0 1 0 15 0 a7.5 7.5 0 1 0 -15 0zM1756.33 968.03 a7.5 7.5 0 1 0 15 0 a7.5 7.5 0 1 0 -15 0zM1821.28 1005.53 a7.5 7.5 0 1 0 15 0 a7.5 7.5 0 1 0 -15 0zM1821.28 1080.53 a7.5 7.5 0 1 0 15 0 a7.5 7.5 0 1 0 -15 0zM1756.33 1118.03 a7.5 7.5 0 1 0 15 0 a7.5 7.5 0 1 0 -15 0zM1756.33 1193.03 a7.5 7.5 0 1 0 15 0 a7.5 7.5 0 1 0 -15 0zM1691.38 1230.53 a7.5 7.5 0 1 0 15 0 a7.5 7.5 0 1 0 -15 0zM1626.42 1193.03 a7.5 7.5 0 1 0 15 0 a7.5 7.5 0 1 0 -15 0zM1821.28 -44.47 a7.5 7.5 0 1 0 15 0 a7.5 7.5 0 1 0 -15 0zM1886.24 -6.97 a7.5 7.5 0 1 0 15 0 a7.5 7.5 0 1 0 -15 0zM1886.24 68.03 a7.5 7.5 0 1 0 15 0 a7.5 7.5 0 1 0 -15 0zM1821.28 105.53 a7.5 7.5 0 1 0 15 0 a7.5 7.5 0 1 0 -15 0zM1951.19 105.53 a7.5 7.5 0 1 0 15 0 a7.5 7.5 0 1 0 -15 0zM1951.19 180.53 a7.5 7.5 0 1 0 15 0 a7.5 7.5 0 1 0 -15 0zM1886.24 218.03 a7.5 7.5 0 1 0 15 0 a7.5 7.5 0 1 0 -15 0zM1821.28 180.53 a7.5 7.5 0 1 0 15 0 a7.5 7.5 0 1 0 -15 0zM1886.24 293.03 a7.5 7.5 0 1 0 15 0 a7.5 7.5 0 1 0 -15 0zM1821.28 330.53 a7.5 7.5 0 1 0 15 0 a7.5 7.5 0 1 0 -15 0zM1951.19 330.53 a7.5 7.5 0 1 0 15 0 a7.5 7.5 0 1 0 -15 0zM1951.19 405.53 a7.5 7.5 0 1 0 15 0 a7.5 7.5 0 1 0 -15 0zM1886.24 443.03 a7.5 7.5 0 1 0 15 0 a7.5 7.5 0 1 0 -15 0zM1821.28 405.53 a7.5 7.5 0 1 0 15 0 a7.5 7.5 0 1 0 -15 0zM1886.24 518.03 a7.5 7.5 0 1 0 15 0 a7.5 7.5 0 1 0 -15 0zM1951.19 555.53 a7.5 7.5 0 1 0 15 0 a7.5 7.5 0 1 0 -15 0zM1951.19 630.53 a7.5 7.5 0 1 0 15 0 a7.5 7.5 0 1 0 -15 0zM1886.24 668.03 a7.5 7.5 0 1 0 15 0 a7.5 7.5 0 1 0 -15 0zM1886.24 743.03 a7.5 7.5 0 1 0 15 0 a7.5 7.5 0 1 0 -15 0zM1951.19 780.53 a7.5 7.5 0 1 0 15 0 a7.5 7.5 0 1 0 -15 0zM1951.19 855.53 a7.5 7.5 0 1 0 15 0 a7.5 7.5 0 1 0 -15 0zM1886.24 893.03 a7.5 7.5 0 1 0 15 0 a7.5 7.5 0 1 0 -15 0zM1886.24 968.03 a7.5 7.5 0 1 0 15 0 a7.5 7.5 0 1 0 -15 0zM1951.19 1005.53 a7.5 7.5 0 1 0 15 0 a7.5 7.5 0 1 0 -15 0zM1951.19 1080.53 a7.5 7.5 0 1 0 15 0 a7.5 7.5 0 1 0 -15 0zM1886.24 1118.03 a7.5 7.5 0 1 0 15 0 a7.5 7.5 0 1 0 -15 0zM1886.24 1193.03 a7.5 7.5 0 1 0 15 0 a7.5 7.5 0 1 0 -15 0zM1821.28 1230.53 a7.5 7.5 0 1 0 15 0 a7.5 7.5 0 1 0 -15 0z" fill="#03305d"></path><path d="M59.86 816.96L103.17 841.96L103.17 891.96L59.86 916.96L16.56 891.96L16.56 841.96zM16.56 1041.96L59.86 1066.96L59.86 1116.96L16.56 1141.96L-26.74 1116.96L-26.74 1066.96zM146.47 516.96L189.77 541.96L189.77 591.96L146.47 616.96L103.17 591.96L103.17 541.96zM189.77 591.96L233.07 616.96L233.07 666.96L189.77 691.96L146.47 666.96L146.47 616.96zM189.77 891.96L233.07 916.96L233.07 966.96L189.77 991.96L146.47 966.96L146.47 916.96zM276.38 441.96L319.68 466.96L319.68 516.96L276.38 541.96L233.07 516.96L233.07 466.96zM276.38 1041.96L319.68 1066.96L319.68 1116.96L276.38 1141.96L233.07 1116.96L233.07 1066.96zM362.98 291.96L406.28 316.96L406.28 366.96L362.98 391.96L319.68 366.96L319.68 316.96zM449.59 891.96L492.89 916.96L492.89 966.96L449.59 991.96L406.28 966.96L406.28 916.96zM536.19 441.96L579.49 466.96L579.49 516.96L536.19 541.96L492.89 516.96L492.89 466.96zM579.49 666.96L622.79 691.96L622.79 741.96L579.49 766.96L536.19 741.96L536.19 691.96zM579.49 966.96L622.79 991.96L622.79 1041.96L579.49 1066.96L536.19 1041.96L536.19 991.96zM622.79 -8.04L666.1 16.96L666.1 66.96L622.79 91.96L579.49 66.96L579.49 16.96zM666.1 66.96L709.4 91.96L709.4 141.96L666.1 166.96L622.79 141.96L622.79 91.96zM666.1 666.96L709.4 691.96L709.4 741.96L666.1 766.96L622.79 741.96L622.79 691.96zM666.1 966.96L709.4 991.96L709.4 1041.96L666.1 1066.96L622.79 1041.96L622.79 991.96zM796 141.96L839.31 166.96L839.31 216.96L796 241.96L752.7 216.96L752.7 166.96zM796 291.96L839.31 316.96L839.31 366.96L796 391.96L752.7 366.96L752.7 316.96zM1012.52 966.96L1055.82 991.96L1055.82 1041.96L1012.52 1066.96L969.22 1041.96L969.22 991.96zM1099.12 366.96L1142.42 391.96L1142.42 441.96L1099.12 466.96L1055.82 441.96L1055.82 391.96zM1185.73 516.96L1229.03 541.96L1229.03 591.96L1185.73 616.96L1142.42 591.96L1142.42 541.96zM1229.03 141.96L1272.33 166.96L1272.33 216.96L1229.03 241.96L1185.73 216.96L1185.73 166.96zM1229.03 441.96L1272.33 466.96L1272.33 516.96L1229.03 541.96L1185.73 516.96L1185.73 466.96zM1272.33 816.96L1315.63 841.96L1315.63 891.96L1272.33 916.96L1229.03 891.96L1229.03 841.96zM1272.33 966.96L1315.63 991.96L1315.63 1041.96L1272.33 1066.96L1229.03 1041.96L1229.03 991.96zM1315.63 591.96L1358.94 616.96L1358.94 666.96L1315.63 691.96L1272.33 666.96L1272.33 616.96zM1488.85 -8.04L1532.15 16.96L1532.15 66.96L1488.85 91.96L1445.54 66.96L1445.54 16.96zM1488.85 291.96L1532.15 316.96L1532.15 366.96L1488.85 391.96L1445.54 366.96L1445.54 316.96zM1488.85 591.96L1532.15 616.96L1532.15 666.96L1488.85 691.96L1445.54 666.96L1445.54 616.96zM1575.45 -8.04L1618.75 16.96L1618.75 66.96L1575.45 91.96L1532.15 66.96L1532.15 16.96zM1618.75 66.96L1662.06 91.96L1662.06 141.96L1618.75 166.96L1575.45 141.96L1575.45 91.96zM1618.75 366.96L1662.06 391.96L1662.06 441.96L1618.75 466.96L1575.45 441.96L1575.45 391.96zM1705.36 366.96L1748.66 391.96L1748.66 441.96L1705.36 466.96L1662.06 441.96L1662.06 391.96zM1705.36 516.96L1748.66 541.96L1748.66 591.96L1705.36 616.96L1662.06 591.96L1662.06 541.96zM1662.06 591.96L1705.36 616.96L1705.36 666.96L1662.06 691.96L1618.75 666.96L1618.75 616.96zM1791.96 216.96L1835.27 241.96L1835.27 291.96L1791.96 316.96L1748.66 291.96L1748.66 241.96zM1835.27 -8.04L1878.57 16.96L1878.57 66.96L1835.27 91.96L1791.96 66.96L1791.96 16.96zM1835.27 141.96L1878.57 166.96L1878.57 216.96L1835.27 241.96L1791.96 216.96L1791.96 166.96zM1878.57 216.96L1921.87 241.96L1921.87 291.96L1878.57 316.96L1835.27 291.96L1835.27 241.96zM1878.57 516.96L1921.87 541.96L1921.87 591.96L1878.57 616.96L1835.27 591.96L1835.27 541.96zM1921.87 -8.04L1965.17 16.96L1965.17 66.96L1921.87 91.96L1878.57 66.96L1878.57 16.96zM1965.17 366.96L2008.48 391.96L2008.48 441.96L1965.17 466.96L1921.87 441.96L1921.87 391.96z" stroke="rgba(6, 80, 156, 0.93)" stroke-width="2"></path></g><defs><mask id="SvgjsMask1135"><rect width="1920" height="1080" fill="#ffffff"></rect></mask><linearGradient x1="10.94%" y1="-19.44%" x2="89.06%" y2="119.44%" gradientUnits="userSpaceOnUse" id="SvgjsLinearGradient1136"><stop stop-color="#0e2a47" offset="0"></stop><stop stop-color="rgba(0, 158, 155, 1)" offset="1"></stop></linearGradient></defs></svg>